<mxfile host="Electron" modified="2025-10-19T00:00:00.000Z" agent="Mozilla/5.0 (Windows NT 10.0; Win64; x64) AppleWebKit/537.36" etag="abc127" version="24.7.5" type="device">
  <diagram name="출석 관리 API" id="attendance-diagram">
    <mxGraphModel dx="1422" dy="794" grid="1" gridSize="10" guides="1" tooltips="1" connect="1" arrows="1" fold="1" page="1" pageScale="1" pageWidth="1169" pageHeight="827" math="0" shadow="0">
      <root>
        <mxCell id="0"/>
        <mxCell id="1" parent="0"/>
        <mxCell id="title" value="📅 출석 관리 API&#xa;(핵심 비즈니스)" style="text;html=1;strokeColor=none;fillColor=none;align=center;verticalAlign=middle;whiteSpace=wrap;rounded=0;fontSize=24;fontStyle=1" parent="1" vertex="1">
          <mxGeometry x="350" y="20" width="400" height="60" as="geometry"/>
        </mxCell>
        <mxCell id="professor-section" value="👨‍🏫 교수용 출석 관리" style="text;html=1;strokeColor=#1976D2;fillColor=#E3F2FD;align=center;verticalAlign=middle;whiteSpace=wrap;rounded=1;fontSize=16;fontStyle=1" parent="1" vertex="1">
          <mxGeometry x="100" y="100" width="200" height="40" as="geometry"/>
        </mxCell>
        <mxCell id="prof-mark" value="POST /api/professor/attendance/mark&#xa;✅ 출석 체크&#xa;🔥 성적 이벤트 트리거" style="rounded=1;whiteSpace=wrap;html=1;fillColor=#4CAF50;strokeColor=#2E7D32;fontColor=#FFFFFF;fontSize=12;fontStyle=1" parent="1" vertex="1">
          <mxGeometry x="50" y="160" width="180" height="80" as="geometry"/>
        </mxCell>
        <mxCell id="prof-requests" value="POST /api/professor/attendance/requests&#xa;📋 출석 수정 요청 목록" style="rounded=1;whiteSpace=wrap;html=1;fillColor=#2196F3;strokeColor=#0D47A1;fontColor=#FFFFFF;fontSize=12;fontStyle=1" parent="1" vertex="1">
          <mxGeometry x="270" y="160" width="180" height="80" as="geometry"/>
        </mxCell>
        <mxCell id="prof-approve" value="PUT /api/professor/attendance/requests/{requestIdx}/approve&#xa;👍 출석 요청 승인" style="rounded=1;whiteSpace=wrap;html=1;fillColor=#FF9800;strokeColor=#E65100;fontColor=#FFFFFF;fontSize=12;fontStyle=1" parent="1" vertex="1">
          <mxGeometry x="50" y="280" width="180" height="80" as="geometry"/>
        </mxCell>
        <mxCell id="prof-reject" value="PUT /api/professor/attendance/requests/{requestIdx}/reject&#xa;👎 출석 요청 거부" style="rounded=1;whiteSpace=wrap;html=1;fillColor=#F44336;strokeColor=#B71C1C;fontColor=#FFFFFF;fontSize=12;fontStyle=1" parent="1" vertex="1">
          <mxGeometry x="270" y="280" width="180" height="80" as="geometry"/>
        </mxCell>
        <mxCell id="student-section" value="👨‍🎓 학생용 출석 관리" style="text;html=1;strokeColor=#388E3C;fillColor=#E8F5E8;align=center;verticalAlign=middle;whiteSpace=wrap;rounded=1;fontSize=16;fontStyle=1" parent="1" vertex="1">
          <mxGeometry x="650" y="100" width="200" height="40" as="geometry"/>
        </mxCell>
        <mxCell id="stu-detail" value="POST /api/student/attendance/detail&#xa;📊 출석 상세 조회" style="rounded=1;whiteSpace=wrap;html=1;fillColor=#9C27B0;strokeColor=#4A148C;fontColor=#FFFFFF;fontSize=12;fontStyle=1" parent="1" vertex="1">
          <mxGeometry x="600" y="160" width="180" height="80" as="geometry"/>
        </mxCell>
        <mxCell id="stu-request" value="POST /api/student/attendance/request&#xa;📝 출석 수정 요청" style="rounded=1;whiteSpace=wrap;html=1;fillColor=#FF5722;strokeColor=#BF360C;fontColor=#FFFFFF;fontSize=12;fontStyle=1" parent="1" vertex="1">
          <mxGeometry x="820" y="160" width="180" height="80" as="geometry"/>
        </mxCell>
        <mxCell id="stu-requests" value="POST /api/student/attendance/requests&#xa;📋 출석 요청 목록" style="rounded=1;whiteSpace=wrap;html=1;fillColor=#795548;strokeColor=#3E2723;fontColor=#FFFFFF;fontSize=12;fontStyle=1" parent="1" vertex="1">
          <mxGeometry x="710" y="280" width="180" height="80" as="geometry"/>
        </mxCell>
        <mxCell id="flow1" value="" style="endArrow=classic;html=1;rounded=0;exitX=0.5;exitY=1;entryX=0.5;entryY=0" parent="1" source="prof-mark" target="prof-requests" edge="1">
          <mxGeometry width="50" height="50" relative="1" as="geometry">
            <mxPoint x="-20" y="30" as="sourcePoint"/>
            <mxPoint x="30" y="-20" as="targetPoint"/>
          </mxGeometry>
        </mxCell>
        <mxCell id="flow2" value="" style="endArrow=classic;html=1;rounded=0;exitX=0.5;exitY=1;entryX=0.5;entryY=0" parent="1" source="prof-requests" target="prof-approve" edge="1">
          <mxGeometry width="50" height="50" relative="1" as="geometry">
            <mxPoint x="-20" y="30" as="sourcePoint"/>
            <mxPoint x="30" y="-20" as="targetPoint"/>
          </mxCell>
        </mxCell>
        <mxCell id="flow3" value="" style="endArrow=classic;html=1;rounded=0;exitX=0.5;exitY=1;entryX=0.5;entryY=0" parent="1" source="prof-requests" target="prof-reject" edge="1">
          <mxGeometry width="50" height="50" relative="1" as="geometry">
            <mxPoint x="-20" y="30" as="sourcePoint"/>
            <mxPoint x="30" y="-20" as="targetPoint"/>
          </mxGeometry>
        </mxCell>
        <mxCell id="flow4" value="" style="endArrow=classic;html=1;rounded=0;exitX=0.5;exitY=1;entryX=0.5;entryY=0" parent="1" source="stu-detail" target="stu-request" edge="1">
          <mxGeometry width="50" height="50" relative="1" as="geometry">
            <mxPoint x="-20" y="30" as="sourcePoint"/>
            <mxPoint x="30" y="-20" as="targetPoint"/>
          </mxGeometry>
        </mxCell>
        <mxCell id="flow5" value="" style="endArrow=classic;html=1;rounded=0;exitX=0.5;exitY=1;entryX=0.5;entryY=0" parent="1" source="stu-request" target="stu-requests" edge="1">
          <mxGeometry width="50" height="50" relative="1" as="geometry">
            <mxPoint x="-20" y="30" as="sourcePoint"/>
            <mxPoint x="30" y="-20" as="targetPoint"/>
          </mxGeometry>
        </mxCell>
        <mxCell id="flow6" value="" style="endArrow=classic;html=1;rounded=0;exitX=0.5;exitY=1;entryX=0.5;entryY=0" parent="1" source="stu-request" target="prof-requests" edge="1">
          <mxGeometry width="50" height="50" relative="1" as="geometry">
            <mxPoint x="-20" y="30" as="sourcePoint"/>
            <mxPoint x="30" y="-20" as="targetPoint"/>
          </mxGeometry>
        </mxCell>
        <mxCell id="event-trigger" value="🔥 성적 이벤트 트리거&#xa;POST /api/professor/attendance/mark&#xa;• 출석 체크가 성적에 반영&#xa;• 실시간 출석률 계산" style="text;html=1;strokeColor=#FF5722;fillColor=#FFF3E0;align=center;verticalAlign=middle;whiteSpace=wrap;rounded=1;fontSize=12;fontStyle=1" parent="1" vertex="1">
          <mxGeometry x="100" y="400" width="350" height="80" as="geometry"/>
        </mxCell>
        <mxCell id="workflow" value="📝 출석 정정 워크플로우&#xa;학생 → 교수 요청 → 교수 승인/거부" style="text;html=1;strokeColor=#2196F3;fillColor=#E3F2FD;align=center;verticalAlign=middle;whiteSpace=wrap;rounded=1;fontSize=12;fontStyle=1" parent="1" vertex="1">
          <mxGeometry x="500" y="400" width="300" height="60" as="geometry"/>
        </mxCell>
        <mxCell id="legend" value="🎨 범례&#xa;🟢 POST - 출석체크&#xa;🔵 POST - 요청목록&#xa;🟠 PUT - 승인&#xa;🔴 PUT - 거부&#xa;🟣 POST - 상세조회&#xa;🟡 POST - 요청&#xa;🟤 POST - 내요청목록" style="text;html=1;strokeColor=none;fillColor=#F5F5F5;align=left;verticalAlign=top;whiteSpace=wrap;rounded=1;fontSize=10" parent="1" vertex="1">
          <mxGeometry x="100" y="500" width="200" height="140" as="geometry"/>
        </mxCell>
      </root>
    </mxGraphModel>
  </diagram>
</mxfile>